<?xml version="1.0" standalone="no"?>
<!DOCTYPE svg PUBLIC "-//W3C//DTD SVG 20010904//EN"
 "http://www.w3.org/TR/2001/REC-SVG-20010904/DTD/svg10.dtd">
<svg version="1.0" xmlns="http://www.w3.org/2000/svg"
 width="700.000000pt" height="700.000000pt" viewBox="0 0 700.000000 700.000000"
 preserveAspectRatio="xMidYMid meet">
<metadata>
Created by potrace 1.14, written by Peter Selinger 2001-2017
</metadata>
<g transform="translate(0.000000,700.000000) scale(0.100000,-0.100000)"
fill="#000000" stroke="none">
<path d="M3484 6710 c-7 -7 -246 -146 -439 -255 -22 -13 -80 -47 -130 -75
-113 -66 -200 -117 -245 -142 -19 -11 -64 -37 -100 -58 -36 -21 -81 -47 -100
-58 -19 -10 -122 -70 -228 -131 -106 -61 -207 -120 -225 -130 -39 -22 -513
-296 -612 -353 -38 -23 -87 -52 -107 -65 -21 -12 -40 -23 -42 -23 -2 0 -49
-27 -104 -59 -55 -32 -124 -72 -154 -89 -29 -16 -100 -57 -158 -91 -58 -33
-109 -62 -115 -64 -7 -3 -10 -538 -10 -1615 l-1 -1610 196 -113 c107 -61 206
-119 220 -128 14 -9 34 -21 45 -26 11 -6 110 -63 220 -127 200 -115 236 -136
330 -190 28 -16 57 -33 65 -38 15 -10 662 -384 730 -422 19 -11 76 -44 125
-73 50 -29 110 -63 135 -77 25 -14 112 -64 193 -112 82 -47 167 -97 190 -110
23 -13 109 -62 190 -109 l148 -85 182 105 c100 58 209 121 242 140 33 19 76
43 95 55 19 11 179 103 355 204 176 102 327 188 335 193 8 5 220 128 470 272
250 144 518 299 595 344 77 45 223 130 325 189 l186 108 -1 1610 0 1609 -50
28 c-27 15 -106 61 -175 101 -69 40 -140 81 -158 92 -63 35 -168 96 -362 208
-107 62 -251 145 -320 185 -533 307 -1037 598 -1045 605 -5 4 -35 21 -65 37
-30 17 -167 95 -305 175 -303 176 -310 179 -321 168z"/>
</g>
</svg>
